<svg width="281" height="233" viewBox="0 0 281 233" fill="none" xmlns="http://www.w3.org/2000/svg">
<g clip-path="url(#clip0_142_4)">
<path d="M170.05 53.17C176.677 53.17 182.05 49.3645 182.05 44.67C182.05 39.9756 176.677 36.17 170.05 36.17C163.423 36.17 158.05 39.9756 158.05 44.67C158.05 49.3645 163.423 53.17 170.05 53.17Z" fill="#FF0000"/>
<path d="M127.21 158.53V59.3699C125.51 59.2899 123.77 59.1399 122.03 59.1399C99.8701 59.1199 77.7101 59.1399 55.5501 59.1299C54.0501 59.1299 52.2101 59.6199 51.1301 58.9399C49.4001 57.8299 47.0801 55.9599 47.0301 54.3499C46.9801 52.6899 49.0901 50.6199 50.7401 49.3799C51.7201 48.6399 53.6401 49.1099 55.1301 49.1099C84.7901 49.1099 114.45 49.1099 144.11 49.1099H149.39C151.93 33.8399 158.98 26.3699 170.41 26.4399C181.98 26.4999 189.37 34.2699 191.54 49.2599C194.55 49.2599 197.74 48.8299 200.78 49.3399C208.82 50.6899 214.15 55.4799 217.15 63.0799C222.64 76.9899 228.42 90.7999 233.74 104.77C235.38 109.07 238.07 111.58 242.15 113.25C250.46 116.65 258.69 120.23 266.95 123.75C275.71 127.48 280.04 134.15 280.05 143.64C280.06 157.97 280.07 172.3 280.05 186.63C280.02 200.88 272.13 208.79 257.77 208.99C256.29 209.01 254.81 208.99 254.48 208.99C251.39 214.19 249.37 219.08 246.08 222.86C231.71 239.39 204.56 233.98 197.48 213.26C196.37 210 195.06 208.9 191.6 208.91C157.11 209.04 122.62 209.01 88.1301 208.96C85.6101 208.96 83.9501 209.21 82.9301 212.16C78.3301 225.5 68.0401 232.75 54.7601 232.44C41.7601 232.14 31.8301 224.46 27.5501 211.39C27.3401 210.76 27.1101 210.14 26.6901 208.94C24.3901 208.94 21.9301 209.06 19.4801 208.92C8.28007 208.28 0.120068 200.04 0.0900684 188.8C-0.0199316 148.98 -0.0199316 109.15 0.0900684 69.3299C0.120068 57.6999 8.79007 49.3199 20.4201 49.1199C23.9201 49.0599 27.4201 49.0299 30.9201 49.1399C34.2401 49.2499 36.2801 50.8799 36.1601 54.4199C36.0501 57.7699 33.9501 59.0699 30.8801 59.1099C27.3801 59.1599 23.8801 59.0399 20.3801 59.1599C14.3901 59.3699 10.1601 63.2399 10.1301 69.1799C10.0101 98.8299 10.0801 128.48 10.0801 158.53H127.21ZM137.89 198.65C139.63 198.76 141.09 198.92 142.55 198.92C158.88 198.94 175.21 198.82 191.54 199.02C195 199.06 196.35 197.96 197.43 194.69C202.43 179.51 218.94 171.57 234.09 176.81C244.59 180.45 250.5 188.25 253.39 198.91C255.51 198.91 257.49 198.99 259.47 198.89C265.05 198.62 269.39 195.55 269.74 190.56C270.23 183.49 269.86 176.37 269.86 168.97H263.39C234.56 168.97 205.73 168.97 176.9 168.95C175.08 168.95 172.89 169.3 171.54 168.44C169.97 167.44 168.17 165.23 168.26 163.64C168.35 162.06 170.4 160.17 172.05 159.21C173.32 158.47 175.3 158.93 176.96 158.93C205.96 158.93 234.95 158.93 263.95 158.93H269.75V147.82C265.83 146.57 259.73 149.25 259.36 142.65C259.06 137.44 264 137.66 269.06 136.68C265.69 134.72 263.58 133.22 261.26 132.2C253.5 128.78 245.75 125.32 237.85 122.26C231.16 119.67 226.92 115.11 224.36 108.5C218.95 94.5499 213.27 80.7099 207.8 66.7899C205.71 61.4699 201.99 59.0599 196.29 59.0899C178.13 59.1799 159.96 59.1199 141.8 59.1399C140.52 59.1399 139.23 59.3499 137.59 59.4999V65.7399C137.59 92.5699 137.59 119.4 137.59 146.23C137.59 154.61 141.847 158.843 150.36 158.93C150.53 158.93 150.69 158.93 150.86 158.93C154.59 158.75 157.86 159.64 157.76 164.08C157.67 168.16 154.51 169.02 151 168.98C146.72 168.94 142.43 168.97 137.9 168.97V198.64L137.89 198.65ZM26.6701 198.78C26.9701 197.96 27.2301 197.35 27.4301 196.72C31.6801 183.48 41.7401 175.37 54.2101 175.15C68.3101 174.9 78.0901 181.84 83.0101 195.87C83.9201 198.45 85.3101 199.01 87.7701 198.98C96.4301 198.86 105.09 198.94 113.74 198.94C118.17 198.94 122.6 198.94 127.15 198.94V169.39H10.0901C10.0901 176.27 9.92007 182.76 10.1401 189.22C10.3101 194.31 13.8101 198.09 18.7501 198.71C21.3501 199.04 24.0301 198.77 26.6701 198.77V198.78ZM55.4101 185.18C44.9201 185.18 36.8501 193.34 36.8601 203.94C36.8701 214.36 45.2701 222.88 55.4901 222.81C65.7101 222.75 74.1201 214.18 74.1001 203.86C74.0801 193.42 65.8301 185.18 55.4101 185.18ZM206 203.98C206.02 214.27 214.56 222.85 224.73 222.8C235 222.75 243.28 214.26 243.23 203.81C243.18 193.23 235.08 185.14 224.56 185.18C214.17 185.22 205.98 193.52 206 203.98ZM180.71 48.9099C181.58 43.8399 179.71 40.3699 175.78 38.0799C172.04 35.8999 168.11 36.0399 164.55 38.5199C161.04 40.9599 159.46 44.3699 160.31 48.9099H180.71Z" fill="#4A36F1"/>
<path d="M205.55 16.48C201.33 20.84 197.56 25.03 193.38 28.77C192.77 29.32 189.56 28.21 188.8 27.05C187.9 25.67 187.55 22.91 188.35 21.63C190.54 18.15 193.24 14.88 196.24 12.05C197.33 11.02 200.06 10.88 201.63 11.45C202.97 11.93 203.73 14.02 205.54 16.48H205.55Z" fill="#FF0000"/>
<path d="M154.24 22.98C153.16 27.97 148.77 30.74 145.92 28.13C142.45 24.95 139.63 20.96 137.04 16.99C136.4 16.01 137.25 13.37 138.25 12.22C139.11 11.23 141.93 10.42 142.55 10.99C146.65 14.77 150.39 18.94 154.25 22.98H154.24Z" fill="#FF0000"/>
<path d="M175.55 9.80006C175.45 11.7901 175.94 14.0901 175.11 15.7001C174.18 17.4901 172.04 19.7601 170.42 19.7701C168.83 19.7701 166.21 17.4201 165.85 15.7101C165.1 12.2001 165.4 8.43006 165.55 4.79006C165.68 1.69006 167.58 -0.639944 170.66 0.180056C172.52 0.680056 174.22 2.99006 175.27 4.89006C175.97 6.17006 175.4 8.14006 175.4 9.81006C175.45 9.81006 175.5 9.81006 175.55 9.81006V9.80006Z" fill="#FF0000"/>
<path d="M181.39 115.18C174.24 115.18 167.09 115.23 159.94 115.16C153.92 115.1 151.03 112.28 150.99 106.37C150.92 96.39 150.92 86.42 150.99 76.44C151.03 70.82 153.61 68.1 159.16 68.04C169.47 67.92 179.78 68.04 190.09 67.99C194.28 67.97 196.94 69.76 198.24 73.85C201.81 85.06 205.63 96.2 209.14 107.43C210.69 112.39 208.57 115.08 203.34 115.15C196.03 115.25 188.71 115.18 181.39 115.18ZM197.78 104.87C194.99 96.27 192.36 88.08 189.6 79.92C189.35 79.17 188.27 78.18 187.57 78.17C178.82 78.05 170.06 78.09 161.27 78.09V104.87H197.78Z" fill="#4A36F1"/>
<path d="M62.81 203.95C62.78 207.96 59.48 211.27 55.5 211.3C51.37 211.33 47.83 207.69 48.02 203.58C48.2 199.65 51.72 196.32 55.6 196.42C59.48 196.51 62.84 200.03 62.81 203.96V203.95Z" fill="#4A36F1"/>
<path d="M232.09 203.69C232.21 207.61 228.94 211.11 225 211.28C221 211.46 217.57 208.36 217.32 204.34C217.06 200.23 220.56 196.44 224.62 196.41C228.51 196.38 231.98 199.76 232.1 203.69H232.09Z" fill="#4A36F1"/>
<path d="M86.9274 130.283C84.8539 131.354 82.6511 132.248 80.3219 132.992C60.8623 139.194 40.7884 130.899 35.4899 114.461C30.1914 98.0226 41.6891 79.6624 61.1473 73.4469C63.4765 72.7033 65.7867 72.1669 68.1052 71.8347C52.761 79.6846 44.3925 95.6561 49.0532 110.14C53.7139 124.623 69.8479 132.768 86.9274 130.283Z" fill="#FF0000"/>
</g>
<defs>
<clipPath id="clip0_142_4">
<rect width="280.07" height="232.58" fill="white"/>
</clipPath>
</defs>
</svg>
