<svg id="Picto_Download" data-name="Picto Download" xmlns="http://www.w3.org/2000/svg" width="35" height="35" viewBox="0 0 35 35">
  <circle id="Ellipse_785" data-name="Ellipse 785" cx="17.5" cy="17.5" r="17.5" fill="#1e96fc" opacity="0.2"/>
  <path id="File_-_Download" data-name="File - Download" d="M11.128,2.25c.171,0,.332,0,.485,0V3.724a14.989,14.989,0,0,0,.065,1.834,2.229,2.229,0,0,0,.594,1.35,2.228,2.228,0,0,0,1.35.594,14.991,14.991,0,0,0,1.835.065h1.473c0,.153,0,.314,0,.485h0v4.673h0a22.441,22.441,0,0,1-.1,2.73,3.041,3.041,0,0,1-.8,1.849,3.041,3.041,0,0,1-1.849.8,22.425,22.425,0,0,1-2.73.1H9.727a22.424,22.424,0,0,1-2.73-.1,3.041,3.041,0,0,1-1.849-.8,3.041,3.041,0,0,1-.8-1.849,22.429,22.429,0,0,1-.1-2.73v-5A22.43,22.43,0,0,1,4.345,5a3.041,3.041,0,0,1,.8-1.849A3.041,3.041,0,0,1,7,2.345a22.429,22.429,0,0,1,2.73-.1h1.4ZM16.7,5.978a2.5,2.5,0,0,1,.118.362H15.5a14.509,14.509,0,0,1-1.714-.054,1.034,1.034,0,0,1-.646-.245,1.035,1.035,0,0,1-.245-.646,14.521,14.521,0,0,1-.054-1.714V2.366a2.5,2.5,0,0,1,.362.118,5.377,5.377,0,0,1,1.632,1.3l.082.083.4.4.082.082A5.376,5.376,0,0,1,16.7,5.978ZM11.2,9.408a.614.614,0,0,0-1.227,0v3.427l-1-1a.614.614,0,0,0-.868.868l2.045,2.045a.613.613,0,0,0,.868,0l2.045-2.045a.614.614,0,0,0-.868-.868l-1,1Z" transform="translate(7.161 7.222)" fill="#1e96fc" fill-rule="evenodd"/>
</svg>
