<?xml version="1.0" encoding="UTF-8"?>
<!DOCTYPE svg PUBLIC "-//W3C//DTD SVG 1.1//EN" "http://www.w3.org/Graphics/SVG/1.1/DTD/svg11.dtd">
<svg xmlns="http://www.w3.org/2000/svg" version="1.1" width="512px" height="512px" style="shape-rendering:geometricPrecision; text-rendering:geometricPrecision; image-rendering:optimizeQuality; fill-rule:evenodd; clip-rule:evenodd" xmlns:xlink="http://www.w3.org/1999/xlink">
<g><path style="opacity:0.982" fill="#000000" d="M 235.5,3.5 C 308.414,-1.11336 367.581,24.8866 413,81.5C 458.824,148.069 463.824,217.735 428,290.5C 414.012,318.493 398.012,345.159 380,370.5C 344.567,418.621 305.401,463.787 262.5,506C 257.833,508 253.167,508 248.5,506C 189.308,448.85 138.475,385.35 96,315.5C 77.8561,284.735 65.8561,251.735 60,216.5C 55.7974,144.758 81.6307,86.5911 137.5,42C 166.893,20.8139 199.56,7.98054 235.5,3.5 Z M 254.5,59.5 C 311.641,62.1402 353.808,88.4735 381,138.5C 404.191,192.143 398.191,242.143 363,288.5C 315.273,339.473 259.106,351.639 194.5,325C 144.507,298.198 118.507,256.365 116.5,199.5C 118.507,142.635 144.507,100.802 194.5,74C 213.665,65.139 233.665,60.3057 254.5,59.5 Z"/></g>
<g><path style="opacity:0.989" fill="#000000" d="M 250.5,99.5 C 256.626,98.4671 261.959,99.9671 266.5,104C 295.951,130.484 325.118,157.317 354,184.5C 356.851,191.219 355.685,197.053 350.5,202C 344.285,203.416 337.952,203.916 331.5,203.5C 331.667,230.502 331.5,257.502 331,284.5C 329.5,287.333 327.333,289.5 324.5,291C 311.833,291.667 299.167,291.667 286.5,291C 284.376,289.878 282.543,288.378 281,286.5C 279.972,268.205 278.972,249.872 278,231.5C 276.5,228.667 274.333,226.5 271.5,225C 260.833,223 250.167,223 239.5,225C 236.667,226.5 234.5,228.667 233,231.5C 231.722,249.114 231.055,266.781 231,284.5C 229.878,286.624 228.378,288.457 226.5,290C 219.601,291.131 212.601,291.631 205.5,291.5C 198.399,291.631 191.399,291.131 184.5,290C 182.622,288.457 181.122,286.624 180,284.5C 179.5,257.502 179.333,230.502 179.5,203.5C 173.048,203.916 166.715,203.416 160.5,202C 155.315,197.053 154.149,191.219 157,184.5C 188.063,155.932 219.23,127.598 250.5,99.5 Z"/></g>
</svg>
